<?xml version="1.0" encoding="UTF-8" standalone="no"?>
<!-- Created with Inkscape (http://www.inkscape.org/) -->

<svg
   xmlns:dc="http://purl.org/dc/elements/1.1/"
   xmlns:cc="http://creativecommons.org/ns#"
   xmlns:rdf="http://www.w3.org/1999/02/22-rdf-syntax-ns#"
   xmlns:svg="http://www.w3.org/2000/svg"
   xmlns="http://www.w3.org/2000/svg"
   xmlns:sodipodi="http://sodipodi.sourceforge.net/DTD/sodipodi-0.dtd"
   xmlns:inkscape="http://www.inkscape.org/namespaces/inkscape"
   width="210mm"
   height="297mm"
   viewBox="0 0 210 297"
   version="1.1"
   id="svg8"
   inkscape:export-filename="C:\Users\Domowy\Desktop\projekt domki\img\linie.png"
   inkscape:export-xdpi="96"
   inkscape:export-ydpi="96"
   inkscape:version="0.92.2 (5c3e80d, 2017-08-06)"
   sodipodi:docname="linie_projekt.svg">
  <defs
     id="defs2" />
  <sodipodi:namedview
     id="base"
     pagecolor="#ffffff"
     bordercolor="#666666"
     borderopacity="1.0"
     inkscape:pageopacity="0.0"
     inkscape:pageshadow="2"
     inkscape:zoom="0.98994949"
     inkscape:cx="335.07573"
     inkscape:cy="876.90322"
     inkscape:document-units="mm"
     inkscape:current-layer="layer1"
     showgrid="false"
     inkscape:window-width="1366"
     inkscape:window-height="706"
     inkscape:window-x="-8"
     inkscape:window-y="-8"
     inkscape:window-maximized="1" />
  <metadata
     id="metadata5">
    <rdf:RDF>
      <cc:Work
         rdf:about="">
        <dc:format>image/svg+xml</dc:format>
        <dc:type
           rdf:resource="http://purl.org/dc/dcmitype/StillImage" />
        <dc:title></dc:title>
      </cc:Work>
    </rdf:RDF>
  </metadata>
  <g
     inkscape:label="Layer 1"
     inkscape:groupmode="layer"
     id="layer1">
    <path
       sodipodi:type="spiral"
       style="fill:#000000;fill-rule:evenodd;stroke:#00b0c8;stroke-width:0.865;fill-opacity:0;stroke-opacity:0.64824122;stroke-miterlimit:4;stroke-dasharray:none"
       id="path3699"
       sodipodi:cx="166.77618"
       sodipodi:cy="53.250191"
       sodipodi:expansion="1"
       sodipodi:revolution="2.9609175"
       sodipodi:radius="7.5537286"
       sodipodi:argument="-17.067667"
       sodipodi:t0="0.25512132"
       d="m 168.64576,53.717586 c -0.0475,1.270896 -1.2837,2.127478 -2.49166,2.020926 -1.60753,-0.141798 -2.66968,-1.718688 -2.48498,-3.265088 0.23219,-1.944068 2.15415,-3.213912 4.03852,-2.949042 2.28065,0.320574 3.7593,2.589871 3.4131,4.811948 -0.40779,2.617321 -3.02575,4.305426 -5.58538,3.877156 -2.95405,-0.494263 -4.85204,-3.461731 -4.34121,-6.358806 0.58025,-3.290836 3.89779,-5.398987 7.13223,-4.805271 3.62766,0.665894 5.94619,4.333903 5.26933,7.905665 -0.60165,3.174893 -3.36295,5.561811 -6.5592,5.844358" />
    <path
       sodipodi:type="spiral"
       style="fill:#000000;fill-rule:evenodd;stroke:#00b0c8;stroke-width:0.865;fill-opacity:0;stroke-opacity:0.64824122;stroke-miterlimit:4;stroke-dasharray:none"
       id="path3699-7"
       sodipodi:cx="38.118038"
       sodipodi:cy="57.692028"
       sodipodi:expansion="1"
       sodipodi:revolution="2.9311264"
       sodipodi:radius="7.4777308"
       sodipodi:argument="-17.067667"
       sodipodi:t0="0.11810568"
       d="m 37.512579,57.04907 c 0.272696,-0.673922 1.159592,-0.742352 1.712737,-0.399741 0.897928,0.556165 0.95768,1.811106 0.372661,2.614297 -0.821675,1.128104 -2.468344,1.177599 -3.515857,0.345581 -1.361387,-1.081324 -1.39968,-3.127905 -0.3185,-4.417417 1.338407,-1.596302 3.788663,-1.622937 5.318976,-0.29142 1.83216,1.594153 1.846899,4.450125 0.26434,6.220535 -1.849116,2.068609 -5.11204,2.071314 -7.122095,0.237261 -2.305448,-2.103582 -2.296038,-5.774264 -0.21018,-8.023655 2.357712,-2.54256 6.436706,-2.520981 8.925214,-0.1831 2.77987,2.611607 2.746085,7.099312 0.15602,9.826774 -0.905945,0.954003 -2.068645,1.650407 -3.333932,2.008634"
       transform="rotate(-167.68424,38.576122,62.94575)"
       inkscape:transform-center-x="-8.5739359e-006"
       inkscape:transform-center-y="-6.4144704" />
    <path
       style="fill:#000000;stroke:#00b0c8;stroke-width:0.865;stroke-linecap:butt;stroke-linejoin:miter;stroke-opacity:0.64824122;fill-opacity:0;stroke-miterlimit:4;stroke-dasharray:none"
       d="m 37.852929,60.698713 60.769526,0.03502"
       id="path3740"
       inkscape:connector-curvature="0" />
    <path
       style="fill:#000000;stroke:#00b0c8;stroke-width:0.865;stroke-linecap:butt;stroke-linejoin:miter;stroke-opacity:0.64824122;fill-opacity:0;stroke-miterlimit:4;stroke-dasharray:none"
       d="m 106.26697,60.764413 60.76953,0.03502"
       id="path3740-3"
       inkscape:connector-curvature="0" />
  </g>
</svg>
